<?xml version="1.0" encoding="utf-8"?>
<!-- Generator: Adobe Illustrator 16.0.4, SVG Export Plug-In . SVG Version: 6.00 Build 0)  -->
<!DOCTYPE svg PUBLIC "-//W3C//DTD SVG 1.1 Basic//EN" "http://www.w3.org/Graphics/SVG/1.1/DTD/svg11-basic.dtd">
<svg version="1.1" baseProfile="basic" id="Layer_1"
	 xmlns="http://www.w3.org/2000/svg" xmlns:xlink="http://www.w3.org/1999/xlink" x="0px" y="0px" width="200px" height="108.81px"
	 viewBox="0 0 200 108.81" xml:space="preserve">
<g>
	<path fill-rule="evenodd" clip-rule="evenodd" fill="#008054" d="M56.155,16.152c0.201-0.208,0.234-0.271,0.773-0.525
		c0.528-0.25,0.822-0.092,1.178-0.014c0.654,0.146,1.124,0.481,1.577,0.833c0.189,0.149,0.315,0.256,0.495,0.677
		c0.16,0.372,0.089,0.722,0.089,1.201c0.051,17.662,0.394,34.635,0.757,51.84c0.008,0.459,0.099,0.603-0.044,1.141
		c-0.148,0.541-0.279,0.666-0.525,0.852c-0.975,0.74-2.614,1.151-4.051,0.924c-0.504-0.08-0.868-0.121-1.325-0.56
		c-0.455-0.44-0.523-0.654-0.654-1.032c-0.618-1.772-0.042-3.749,0.047-5.739c0.203-4.649,0.101-9.868,0-15.004
		c-0.171-8.844,0.57-18.333,0.528-27.111C54.981,20.178,54.237,18.167,56.155,16.152"/>
	<path fill-rule="evenodd" clip-rule="evenodd" fill="#008054" d="M66.783,19.18c5.88-1.426,6.07,7.604,1.578,8.422
		C63.36,28.514,62.157,20.299,66.783,19.18"/>
	<path fill-rule="evenodd" clip-rule="evenodd" fill="#008054" d="M70.046,32.406c1.283,1.398,0.14,5.586,0.14,8.779
		c0.008,9.682,1.718,21.881-0.098,30.919c-0.068,0.249-0.144,0.464-0.315,0.642c-0.16,0.166-0.453,0.222-0.711,0.264
		c-4.68,0.76-5.484-1.366-5.237-6.996c0.278-6.285,0.299-18.994,0-26.058c-0.168-4.023-1.12-8.093,2.633-8.688
		C68.108,31.008,69.538,31.974,70.046,32.406"/>
	<path fill-rule="evenodd" clip-rule="evenodd" fill="#008054" d="M126.245,67.652c0.058,0.158,0.072,0.289,0.239,0.425
		c0.171,0.135,0.304,0.15,0.483,0.172c1.611,0.187,3.378-1.286,5.262-0.919c0.257,0.05,0.56,0.094,0.688,0.33
		c0.133,0.239,0.051,0.583-0.026,0.896c-0.991,4.089-8.013,6.425-11.46,3.248c-2.62-2.408-3.414-9.894-2.896-16.057
		c0.471-5.696,1.981-13.4,4.735-18.162c1.806-3.119,5.236-6.144,8.686-6.318c3.01-0.15,3.85,1.416,3.95,2.106
		c0.425,2.966-3.825,3.231-5.796,5c-2.964,2.672-4.138,8.507-4.732,14.477C124.878,57.85,124.671,63.465,126.245,67.652"/>
	<path fill-rule="evenodd" clip-rule="evenodd" fill="#008054" d="M99.556,31.797c6.766-1.774,4.253,7.313,3.893,11.581
		c2.564-2.982,3.233-8.799,7.106-10.267c2.134-0.808,5.784-0.152,6.318,2.634c0.595,3.072-0.588,8.04-0.383,12.623
		c0.161,3.551-0.43,8.145-0.142,12.119c0.333,4.661,2.481,12.106-1.054,13.161c-1.608,0.481-3.184-0.192-4.209-1.027
		c-0.325-0.267-0.456-0.308-0.674-0.756c-0.169-0.341-0.15-0.883-0.164-1.303c-0.191-7.45,2.026-27.573,0.729-29.077
		c-1.158-0.955-4.914,3.456-6.829,9.751c-1.575,6.489-1.052,14.558-1.575,19.227c-0.062,0.534-0.124,1.243-0.261,1.499
		c-0.138,0.254-0.401,0.371-0.687,0.481c-1.99,0.773-5.125,0.791-6.071-1.166c-0.597-1.23,0.131-3.572,0.262-5.264
		c0.32-4.145,0.43-9.182,0.789-14.213c0.167-2.336,0.881-4.601,1.055-6.845c0.364-4.73-0.92-8.849,0.663-12.19
		c0.117-0.238,0.173-0.364,0.456-0.613C99.061,31.904,99.285,31.868,99.556,31.797"/>
	<path fill-rule="evenodd" clip-rule="evenodd" fill="#008054" d="M139.792,50c-0.504,5.22-0.43,12.816,0.846,17.197
		c0.031,0.115,0.1,0.404,0.273,0.516c0.212,0.126,0.448,0,0.56-0.034c5.29-1.598,9.021-5.403,12.799-8.508
		c2.035-1.675,4.073-3.316,6.056-5.002c1.776-1.511,3.351-3.638,5.802-4.298c0.254-0.042,0.349-0.133,0.596,0.053
		c0.117,0.088,0.095,0.264,0.004,0.652c-1.614,6.998-8.232,10.835-14.298,15.702c-4.407,3.53-11.372,10.599-16.75,6.128
		c-0.301-0.25-0.414-0.248-0.754-0.896c-0.335-0.635-0.332-1.152-0.43-1.776c-1-6.64-1.473-15.567,0.032-22.67
		c0.266-1.249,0.747-2.291,1.177-3.685c0.515-1.681,0.785-3.334,1.455-4.476c0.953-1.622,6.835-6.475,8.951-6.843
		c3.152-0.551,6.535,1.402,7.631,3.159c0.968,1.545,0.743,4.082,1.055,6.844c0.355,3.149,1.497,6.379-2.108,7.371
		c-1.463,0.4-2.458,0.54-4.209,0.481C145.16,49.806,142.062,49.131,139.792,50 M147.104,37.18c-2.753,0.547-4.783,2.88-5.497,6.023
		c-0.11,0.479-0.252,1.06-0.019,1.364c0.227,0.305,0.489,0.317,0.842,0.363c2.202,0.27,6.355,0.407,7.201-0.543
		c0.884-1.289-0.43-4.402-0.844-6.036c-0.125-0.491-0.32-1.015-0.66-1.164C147.868,37.073,147.462,37.109,147.104,37.18z"/>
	<path fill-rule="evenodd" clip-rule="evenodd" fill="#008054" d="M95.03,34.236c0.318,0.182,0.687,0.386,0.848,0.674
		c0.167,0.286,0.178,0.673,0.167,1.032c-0.073,1.827-1.273,3.317-1.615,5.216c-1.503,8.412-1.114,17.805-0.752,26.596
		c0.044,1.189-0.1,2.453-0.404,3.647c-0.098,0.375-0.146,0.671-0.392,0.988c-0.245,0.315-0.456,0.408-0.727,0.516
		c-1.586,0.62-3.581,0.354-4.855-0.516c-0.263-0.179-0.405-0.234-0.576-0.559c-0.169-0.324-0.211-0.537-0.25-0.78
		c-0.533-3.38,0.548-6.59,0.357-10.314c-0.018-0.35-0.046-1.058-0.178-0.92c-0.141,0.148-0.203,0.596-0.392,1.033
		c-1.448,3.356-3.765,10.01-6.489,11.271c-2.376,1.099-5.07,0.254-6.476-1.611c-0.272-0.363-0.514-0.895-0.571-1.158
		c-0.058-0.267-0.139-1.029-0.153-1.524c-0.167-6.837,1.229-14.248,2.707-20.928c0.912-4.119,3.38-10.753,6.177-12.704
		C84.635,31.974,90.955,31.911,95.03,34.236 M86.87,37.782c-0.484,0.098-0.656,0.236-0.79,0.348
		c-1.713,1.413-3.536,4.176-4.254,7.107c-1.338,5.452-7.065,23.082-2.111,18.959c1.125-0.826,6.474-12.61,8.412-19.586
		c0.561-2.024,1.5-4.21,1.083-6.188C88.922,37.712,87.351,37.682,86.87,37.782z"/>
	<path fill-rule="evenodd" clip-rule="evenodd" fill="#008054" d="M49.874,66.806c-0.777-7.692,0.562-17.063,0-24.744
		c-0.408-5.624-1.27-10.232-0.788-16.848c0.349-4.768,1.657-10.943-3.158-9.494c-1.163,0.349-1.915,2.662-2.106,4.737
		c-0.884,9.502,0.082,20.409-0.261,27.658c-0.014,0.265-0.021,0.731-0.016,1.298c-1.452,0.036-2.828,0.073-4.147,0.11
		c-0.031-0.233-0.068-0.475-0.111-0.724c-2.35-8.515-3.808-20.021-4.096-30.11c-0.027-0.986,0.066-2.105-0.173-2.677
		c-0.208-0.5-0.294-0.514-0.5-0.636c-0.825-0.485-1.688-0.945-2.807-0.69c-2.657,0.603-1.555,3.579-2.104,6.053
		c-0.447,2.024-2.234,4.767-3.42,7.369c-1.12,2.46-2.617,4.893-3.689,7.37c-1.923,4.475-4.51,10.636-6.156,14.662
		c-3.504,0.062-7.361,0.112-11.955,0.141c-0.479,0.003-0.832-0.069-1.202,0.093c-0.421,0.18-0.528,0.306-0.674,0.499
		c-0.352,0.454-0.686,0.92-0.829,1.579c-0.078,0.353-0.233,0.649,0.015,1.176c0.254,0.539,0.321,0.573,0.53,0.772
		c2.019,1.911,5.444,1.153,8.901,1.125c1.217-0.01,2.22-0.005,3.08,0.015c-2.374,6.078-3.04,7.468-3.793,9.038
		c-0.669,1.404-2.928,5.025-2.463,8.655c0.062,0.482,0.052,0.833,0.489,1.237c0.483,0.443,0.639,0.394,1.042,0.452
		c2.567,0.038,3.719-3.091,4.595-5.225c1.103-2.68,2.528-5.422,3.685-7.896c0.396-0.849,1.461-3.402,2.49-5.906
		c1.395,0.091,3.181,0.142,6.467,0.066c2.532-0.056,5.086-0.116,7.58-0.139c1.694,6.792,1.848,12.549,2.96,18.251
		c0.075,0.388,0.038,0.737,0.351,1.034c0.304,0.29,0.534,0.259,0.94,0.318c1.253,0.175,2.942,0.226,4.008-0.096
		c0.304-0.089,0.512-0.09,0.621-0.422c0.105-0.33-0.018-0.63-0.084-0.977c-1.097-5.433-2.774-12.592-3.116-18.277
		c0.587,0.018,1.17-0.169,1.748-0.146c0.773,0.033,1.549-0.062,2.308,0.017c0.298,4.095-0.188,10.499-0.414,14.667
		c-0.033,0.569-0.117,0.983,0.091,1.583c0.229,0.66,0.385,0.684,0.803,0.944c1.77,1.008,5.032,0.81,5.887-0.916
		C51.074,70.439,50.043,68.486,49.874,66.806 M22.643,50.005c2.23-6.345,5.278-11.92,7.751-17.946
		c1.098,5.31,2.151,9.564,2.978,17.453c0.005,0.066,0.007,0.123,0.012,0.186C29.615,49.812,26.204,49.915,22.643,50.005z"/>
	<path fill="#EC2227" d="M198.762,19.846c-1.085-12.21-13.4-21.008-24.396-19.06c-11.218,1.41-18.715,12.211-17.544,21.586
		c0.724-9.461,8.836-17.348,17.936-17.632c9.08-0.646,17.802,6.586,18.904,15.73c1.02,8.439-6.117,9.598-6.345,9.651
		c-0.108-3.076-4.96-11.49-10.268-6.752c-3.472,3.104,1.09,10.59,8.089,11.174c-0.379,3.972-4.243,7.232-8.61,7.534
		c4.341,0.591,9.716-2.286,10.777-7.452C187.898,34.595,199.231,34.095,198.762,19.846 M179.98,25.029
		c2.197-0.895,5.146,3.056,5.2,5.15C181.073,30.036,177.868,25.889,179.98,25.029z"/>
	<path fill="#8BC541" d="M176.527,42.08c-9.378-1.716-14.528-11.596-11.179-19.412c3.151-7.908,13.794-11.211,21.632-5.822
		c-2.588-3.805-7.72-6.499-13.258-6.038c-5.543,0.339-10.949,4.282-13.316,9.807c-2.234,5.602-1.168,12.183,2.471,16.369
		C166.48,41.205,172,42.961,176.527,42.08"/>
	<g>
		<path fill="#008054" d="M77.724,12.914V2.677h2.065v10.237H77.724z"/>
		<path fill="#008054" d="M80.756,5.201h1.892v0.904h0.027C83.093,5.344,83.795,5,84.641,5c1.249,0,1.965,0.66,1.965,2.195v5.719
			h-1.979V7.595c0-0.788-0.258-1.075-0.846-1.075c-0.704,0-1.046,0.429-1.046,1.275v5.118h-1.978V5.201z"/>
		<path fill="#008054" d="M87.941,2.993h1.977v2.208h1.146v1.348h-1.146v4.172c0,0.616,0.128,0.846,0.703,0.846
			c0.158,0,0.315-0.014,0.443-0.029v1.377C90.621,12.957,90.233,13,89.776,13c-1.549,0-1.834-0.487-1.834-2.035V6.548h-1.004V5.201
			h1.004V2.993z"/>
		<path fill="#008054" d="M93.089,9.359v0.616c0,0.917,0.244,1.792,0.975,1.792c0.673,0,0.932-0.473,1.046-1.449h1.777
			c-0.07,1.793-0.903,2.796-2.795,2.796c-2.867,0-2.981-2.208-2.981-4.13c0-2.063,0.4-3.985,3.068-3.985
			c2.307,0,2.823,1.548,2.823,3.914v0.445H93.089z M95.11,8.182c-0.043-1.174-0.187-1.835-1.003-1.835
			c-0.79,0-1.018,0.803-1.018,1.535v0.3H95.11z"/>
		<path fill="#008054" d="M97.609,5.201H99.5v1.032h0.03C99.932,5.488,100.489,5,101.307,5c0.113,0,0.245,0.014,0.359,0.029v1.892
			c-0.215-0.014-0.401-0.028-0.617-0.028c-0.688,0-1.463,0.357-1.463,1.389v4.631h-1.977V5.201z"/>
		<path fill="#008054" d="M101.99,5.201h1.892v0.904h0.03C104.327,5.344,105.03,5,105.875,5c1.248,0,1.964,0.66,1.964,2.195v5.719
			h-1.978V7.595c0-0.788-0.26-1.075-0.848-1.075c-0.704,0-1.046,0.429-1.046,1.275v5.118h-1.978V5.201z"/>
		<path fill="#008054" d="M108.658,7.565V7.38c0-1.778,1.218-2.38,2.711-2.38c2.35,0,2.794,0.976,2.794,2.365v4.057
			c0,0.731,0.059,1.032,0.244,1.492h-1.893c-0.128-0.245-0.188-0.531-0.241-0.803h-0.031c-0.458,0.803-1.004,1.003-1.964,1.003
			c-1.379,0-1.862-1.176-1.862-2.208c0-1.461,0.584-2.036,1.948-2.407l1.119-0.302c0.588-0.158,0.79-0.386,0.79-0.902
			c0-0.588-0.246-0.948-0.919-0.948c-0.618,0-0.918,0.388-0.918,1.004v0.214H108.658z M112.273,9.058
			c-0.275,0.215-0.603,0.329-0.849,0.388c-0.804,0.171-1.119,0.558-1.119,1.246c0,0.589,0.216,1.076,0.747,1.076
			c0.529,0,1.221-0.331,1.221-1.189V9.058z"/>
		<path fill="#008054" d="M115.536,2.993h1.978v2.208h1.148v1.348h-1.148v4.172c0,0.616,0.13,0.846,0.702,0.846
			c0.158,0,0.315-0.014,0.446-0.029v1.377c-0.446,0.042-0.833,0.085-1.291,0.085c-1.548,0-1.835-0.487-1.835-2.035V6.548h-1.005
			V5.201h1.005V2.993z"/>
		<path fill="#008054" d="M119.07,2.562h1.98v1.693h-1.98V2.562z M119.07,5.201h1.98v7.713h-1.98V5.201z"/>
		<path fill="#008054" d="M124.75,5c2.367-0.042,3.039,1.362,3.039,4.058c0,2.638-0.787,4.057-3.039,4.057
			c-2.364,0.043-3.037-1.363-3.037-4.057C121.713,6.419,122.5,5,124.75,5z M124.75,11.767c0.804,0,1.062-0.774,1.062-2.709
			s-0.259-2.71-1.062-2.71c-0.973,0-1.061,1.133-1.061,2.71C123.689,10.635,123.777,11.767,124.75,11.767z"/>
		<path fill="#008054" d="M128.408,5.201h1.892v0.904h0.029C130.745,5.344,131.448,5,132.293,5c1.247,0,1.963,0.66,1.963,2.195
			v5.719h-1.977V7.595c0-0.788-0.258-1.075-0.847-1.075c-0.703,0-1.047,0.429-1.047,1.275v5.118h-1.978V5.201z"/>
		<path fill="#008054" d="M135.076,7.565V7.38c0-1.778,1.22-2.38,2.71-2.38c2.353,0,2.795,0.976,2.795,2.365v4.057
			c0,0.731,0.059,1.032,0.243,1.492h-1.892c-0.128-0.245-0.187-0.531-0.242-0.803h-0.03c-0.458,0.803-1.004,1.003-1.964,1.003
			c-1.377,0-1.863-1.176-1.863-2.208c0-1.461,0.586-2.036,1.949-2.407l1.119-0.302c0.589-0.158,0.789-0.386,0.789-0.902
			c0-0.588-0.244-0.948-0.917-0.948c-0.619,0-0.918,0.388-0.918,1.004v0.214H135.076z M138.69,9.058
			c-0.273,0.215-0.603,0.329-0.848,0.388c-0.803,0.171-1.118,0.558-1.118,1.246c0,0.589,0.214,1.076,0.748,1.076
			c0.529,0,1.218-0.331,1.218-1.189V9.058z"/>
		<path fill="#008054" d="M141.519,2.677h1.981v10.237h-1.981V2.677z"/>
		<path fill="#008054" d="M77.625,17.021h2.065v3.916h2.408v-3.916h2.065v10.237h-2.065v-4.545h-2.408v4.545h-2.065V17.021z"/>
		<path fill="#008054" d="M85.211,27.258V17.021h2.064v10.237H85.211z"/>
		<path fill="#008054" d="M89.972,17.021l1.447,7.569h0.044l1.52-7.569h2.136l-2.351,10.237h-2.652l-2.351-10.237H89.972z"/>
		<path fill="#008054" d="M97.319,16.82h1.605l-3.24,10.638H94.08L97.319,16.82z"/>
		<path fill="#008054" d="M100.434,17.021h2.551l2.709,10.237h-2.15l-0.472-2.165h-2.724l-0.475,2.165h-2.15L100.434,17.021z
			 M100.705,23.401h2.008l-0.99-4.601h-0.028L100.705,23.401z"/>
		<path fill="#008054" d="M106.179,27.258V17.021h2.063v10.237H106.179z"/>
		<path fill="#008054" d="M109.325,17.021h3.384c2.853,0,3.383,1.95,3.383,4.975c0,3.612-0.773,5.262-3.512,5.262h-3.255V17.021z
			 M111.39,25.738h0.918c1.433,0,1.72-0.904,1.72-3.684c0-2.323-0.2-3.514-1.762-3.514h-0.876V25.738z"/>
		<path fill="#008054" d="M118.669,24.061v0.3c0,0.962,0.273,1.578,1.361,1.578c0.633,0,1.234-0.401,1.234-1.261
			c0-0.918-0.459-1.291-1.835-1.75c-1.835-0.617-2.683-1.404-2.683-3.095c0-2.008,1.205-3.012,3.169-3.012
			c1.834,0,3.167,0.789,3.167,2.752v0.288h-1.976c0-0.974-0.316-1.521-1.12-1.521c-0.931,0-1.177,0.575-1.177,1.191
			c0,0.63,0.187,1.031,1.062,1.39l1.593,0.687c1.548,0.689,1.95,1.45,1.95,2.711c0,2.164-1.32,3.139-3.557,3.139
			c-2.337,0-3.254-1.09-3.254-2.981v-0.416H118.669z"/>
	</g>
	<g>
		<path fill="#008054" d="M14.731,90.201v2.314h-3.059V104.2H8.85V92.516H5.792v-2.314H14.731z"/>
		<path fill="#008054" d="M18.33,93.379c3.236-0.061,4.159,1.861,4.159,5.549c0,3.606-1.079,5.549-4.159,5.549
			c-3.233,0.06-4.155-1.864-4.155-5.549C14.175,95.319,15.253,93.379,18.33,93.379z M18.33,102.633c1.101,0,1.452-1.059,1.452-3.705
			s-0.352-3.707-1.452-3.707c-1.333,0-1.449,1.55-1.449,3.707C16.881,101.083,16.998,102.633,18.33,102.633z"/>
		<path fill="#008054" d="M31.645,93.652v10.02c0,2.804-1.236,4.138-4.394,4.138c-2.292,0-3.588-1.021-3.588-2.823h2.589
			c0,0.332,0.138,0.606,0.411,0.804c0.256,0.176,0.569,0.293,0.903,0.293c1.097,0,1.489-0.804,1.489-1.902v-1.39h-0.039
			c-0.55,0.782-1.393,1.293-2.256,1.293c-2.136,0-3.234-1.49-3.234-5.335c0-2.468,0.393-5.37,3.313-5.37
			c0.766,0,1.646,0.353,2.177,1.449h0.039v-1.176H31.645z M27.585,102.006c1.157,0,1.471-1.235,1.471-3.02
			c0-2.568-0.333-3.529-1.412-3.529c-1.195,0-1.41,0.961-1.41,3.804C26.233,100.711,26.429,102.006,27.585,102.006z"/>
		<path fill="#008054" d="M35.703,99.338v0.844c0,1.256,0.333,2.451,1.333,2.451c0.922,0,1.275-0.646,1.431-1.979h2.432
			c-0.098,2.449-1.234,3.823-3.824,3.823c-3.921,0-4.078-3.021-4.078-5.646c0-2.825,0.549-5.451,4.195-5.451
			c3.16,0,3.864,2.117,3.864,5.352v0.607H35.703z M38.466,97.731c-0.058-1.607-0.254-2.511-1.373-2.511
			c-1.078,0-1.391,1.1-1.391,2.099v0.412H38.466z"/>
		<path fill="#008054" d="M43,90.634h2.706v3.019h1.567v1.844h-1.567v5.705c0,0.843,0.175,1.157,0.959,1.157
			c0.215,0,0.433-0.021,0.608-0.039v1.881c-0.608,0.06-1.138,0.119-1.763,0.119c-2.12,0-2.51-0.666-2.51-2.783v-6.04h-1.372v-1.844
			H43V90.634z"/>
		<path fill="#008054" d="M48.194,90.201h2.707v4.529h0.039c0.53-0.921,1.413-1.352,2.568-1.352c1.707,0,2.687,0.902,2.687,3v7.821
			h-2.706v-7.273c0-1.077-0.355-1.47-1.158-1.47c-0.96,0-1.431,0.586-1.431,1.745v6.998h-2.707V90.201z"/>
		<path fill="#008054" d="M60.21,99.338v0.844c0,1.256,0.332,2.451,1.333,2.451c0.919,0,1.274-0.646,1.431-1.979h2.43
			c-0.098,2.449-1.234,3.823-3.824,3.823c-3.92,0-4.076-3.021-4.076-5.646c0-2.825,0.548-5.451,4.195-5.451
			c3.157,0,3.861,2.117,3.861,5.352v0.607H60.21z M62.975,97.731c-0.058-1.607-0.254-2.511-1.372-2.511
			c-1.079,0-1.392,1.1-1.392,2.099v0.412H62.975z"/>
		<path fill="#008054" d="M66.843,93.652h2.59v1.413h0.037c0.551-1.021,1.314-1.687,2.433-1.687c0.156,0,0.333,0.02,0.489,0.039
			v2.587c-0.294-0.018-0.548-0.038-0.843-0.038c-0.94,0-2,0.49-2,1.901v6.332h-2.707V93.652z"/>
		<path fill="#008054" d="M78.467,90.634h2.706v3.019h1.567v1.844h-1.567v5.705c0,0.843,0.175,1.157,0.959,1.157
			c0.215,0,0.433-0.021,0.607-0.039v1.881c-0.607,0.06-1.138,0.119-1.763,0.119c-2.12,0-2.51-0.666-2.51-2.783v-6.04h-1.373v-1.844
			h1.373V90.634z"/>
		<path fill="#008054" d="M87.42,93.379c3.235-0.061,4.155,1.861,4.155,5.549c0,3.606-1.079,5.549-4.155,5.549
			c-3.236,0.06-4.158-1.864-4.158-5.549C83.262,95.319,84.341,93.379,87.42,93.379z M87.42,102.632c1.097,0,1.45-1.058,1.45-3.704
			s-0.353-3.707-1.45-3.707c-1.333,0-1.452,1.55-1.452,3.707C85.968,101.083,86.087,102.632,87.42,102.632z"/>
		<path fill="#008054" d="M99.845,99.338v0.844c0,1.256,0.334,2.45,1.334,2.45c0.923,0,1.274-0.645,1.43-1.979h2.433
			c-0.097,2.449-1.234,3.823-3.822,3.823c-3.923,0-4.08-3.021-4.08-5.646c0-2.825,0.549-5.451,4.196-5.451
			c3.158,0,3.863,2.117,3.863,5.352v0.607H99.845z M102.608,97.731c-0.059-1.607-0.255-2.511-1.372-2.511
			c-1.078,0-1.392,1.1-1.392,2.099v0.412H102.608z"/>
		<path fill="#008054" d="M106.479,93.652h2.587v1.234h0.04c0.57-1.038,1.528-1.508,2.688-1.508c1.703,0,2.684,0.902,2.684,3v7.821
			h-2.705v-7.273c0-1.077-0.353-1.47-1.156-1.47c-0.961,0-1.43,0.586-1.43,1.745v6.998h-2.707V93.652z"/>
		<path fill="#008054" d="M121.517,103.084h-0.039c-0.606,1-1.313,1.393-2.391,1.393c-2.216,0-3.237-1.628-3.237-5.549
			c0-3.922,1.021-5.549,3.237-5.549c1.018,0,1.704,0.412,2.273,1.254h0.04v-4.432h2.706V104.2h-2.59V103.084z M119.97,102.398
			c1.194,0,1.431-1.177,1.431-3.471c0-2.296-0.236-3.471-1.431-3.471c-1.178,0-1.413,1.175-1.413,3.471
			C118.557,101.222,118.792,102.398,119.97,102.398z"/>
		<path fill="#008054" d="M133.219,90.201h3.487l3.707,13.999h-2.94l-0.648-2.959h-3.726l-0.646,2.959h-2.941L133.219,90.201z
			 M133.59,98.928h2.745l-1.354-6.295h-0.036L133.59,98.928z"/>
		<path fill="#008054" d="M141.526,104.2V90.201h2.824V104.2H141.526z"/>
		<path fill="#008054" d="M146.289,90.201h4.628c3.902,0,4.629,2.666,4.629,6.805c0,4.94-1.059,7.194-4.804,7.194h-4.453V90.201z
			 M149.114,102.123h1.253c1.962,0,2.354-1.236,2.354-5.039c0-3.178-0.272-4.805-2.411-4.805h-1.195V102.123z"/>
		<path fill="#008054" d="M159.523,99.829v0.412c0,1.313,0.374,2.157,1.863,2.157c0.864,0,1.688-0.549,1.688-1.725
			c0-1.255-0.628-1.766-2.51-2.394c-2.51-0.844-3.668-1.922-3.668-4.236c0-2.744,1.646-4.115,4.332-4.115
			c2.511,0,4.334,1.076,4.334,3.764v0.392h-2.705c0-1.333-0.432-2.077-1.529-2.077c-1.274,0-1.608,0.783-1.608,1.628
			c0,0.861,0.257,1.41,1.451,1.901l2.175,0.939c2.118,0.941,2.668,1.981,2.668,3.706c0,2.961-1.804,4.295-4.862,4.295
			c-3.195,0-4.451-1.489-4.451-4.079v-0.568H159.523z"/>
	</g>
</g>
<g>
</g>
<g>
</g>
<g>
</g>
<g>
</g>
<g>
</g>
<g>
</g>
</svg>
